<svg width="878" height="878" viewBox="0 0 878 878" fill="none" xmlns="http://www.w3.org/2000/svg">
<path d="M766.898 703.665H468.87C464.005 703.665 460.072 699.732 460.072 694.867V510.909C460.072 506.045 464.005 502.111 468.87 502.111H766.898C771.762 502.111 775.695 506.045 775.695 510.909V694.867C775.695 699.732 771.744 703.665 766.898 703.665Z" fill="#2E344B"/>
<path d="M761.77 694.288H473.997C471.205 694.288 468.94 692.023 468.94 689.231V516.563C468.94 513.771 471.205 511.506 473.997 511.506H761.77C764.562 511.506 766.828 513.771 766.828 516.563V689.231C766.828 692.023 764.562 694.288 761.77 694.288Z" fill="#B9CFE6"/>
<path d="M705.333 541.27H530.417V664.523H705.333V541.27Z" fill="white"/>
<path d="M705.333 541.27H530.417V551.542H705.333V541.27Z" fill="#EBAB6F"/>
<path d="M697.817 549.804H700.082C701.118 549.804 701.961 548.961 701.961 547.925V545.66C701.961 544.624 701.118 543.781 700.082 543.781H697.817C696.781 543.781 695.938 544.624 695.938 545.66V547.925C695.938 548.961 696.781 549.804 697.817 549.804Z" fill="#2E344B"/>
<path d="M689.722 549.804H691.987C693.023 549.804 693.866 548.961 693.866 547.925V545.66C693.866 544.624 693.023 543.781 691.987 543.781H689.722C688.686 543.781 687.843 544.624 687.843 545.66V547.925C687.843 548.961 688.686 549.804 689.722 549.804Z" fill="#2E344B"/>
<path d="M681.627 549.804H683.892C684.928 549.804 685.771 548.961 685.771 547.925V545.66C685.771 544.624 684.928 543.781 683.892 543.781H681.627C680.591 543.781 679.748 544.624 679.748 545.66V547.925C679.765 548.961 680.591 549.804 681.627 549.804Z" fill="#2E344B"/>
<path d="M655.48 703.664H580.288V738.029H655.48V703.664Z" fill="#6E98E4"/>
<path d="M703.735 749.9H532.033C528.837 749.9 526.238 747.301 526.238 744.105V743.842C526.238 740.646 528.837 738.047 532.033 738.047H703.735C706.931 738.047 709.529 740.646 709.529 743.842V744.105C709.529 747.301 706.931 749.9 703.735 749.9Z" fill="#2E344B"/>
<path d="M441.283 366.794L443.899 367.637C445.093 368.023 445.093 369.709 443.899 370.095L441.283 370.938C438.017 371.992 435.47 374.555 434.399 377.822L433.556 380.438C433.17 381.632 431.484 381.632 431.098 380.438L430.255 377.822C429.202 374.555 426.638 372.009 423.372 370.938L420.755 370.095C419.561 369.709 419.561 368.023 420.755 367.637L423.372 366.794C426.638 365.74 429.184 363.177 430.255 359.91L431.098 357.294C431.484 356.1 433.17 356.1 433.556 357.294L434.399 359.91C435.47 363.177 438.017 365.74 441.283 366.794Z" fill="white"/>
<path d="M458.878 388.919L460.81 389.551C461.688 389.832 461.688 391.079 460.81 391.377L458.878 392.009C456.455 392.8 454.576 394.679 453.786 397.102L453.153 399.033C452.872 399.911 451.626 399.911 451.327 399.033L450.695 397.102C449.905 394.696 448.026 392.8 445.603 392.009L443.671 391.377C442.793 391.096 442.793 389.85 443.671 389.551L445.603 388.919C448.026 388.129 449.905 386.25 450.695 383.826L451.327 381.895C451.608 381.017 452.855 381.017 453.153 381.895L453.786 383.826C454.558 386.232 456.455 388.129 458.878 388.919Z" fill="white"/>
<path d="M202.818 262.821L204.75 263.453C205.628 263.734 205.628 264.981 204.75 265.28L202.818 265.912C200.412 266.702 198.516 268.581 197.726 271.004L197.093 272.936C196.812 273.814 195.566 273.814 195.267 272.936L194.635 271.004C193.845 268.598 191.966 266.702 189.543 265.912L187.611 265.28C186.733 264.999 186.733 263.752 187.611 263.453L189.543 262.821C191.948 262.031 193.845 260.152 194.635 257.729L195.267 255.797C195.548 254.919 196.795 254.919 197.093 255.797L197.726 257.729C198.516 260.135 200.395 262.031 202.818 262.821Z" fill="white"/>
<path d="M170.367 626.806L172.299 627.438C173.177 627.719 173.177 628.965 172.299 629.264L170.367 629.896C167.944 630.686 166.065 632.565 165.275 634.988L164.643 636.92C164.362 637.798 163.115 637.798 162.816 636.92L162.184 634.988C161.394 632.583 159.515 630.686 157.092 629.896L155.16 629.264C154.282 628.983 154.282 627.736 155.16 627.438L157.092 626.806C159.515 626.015 161.394 624.136 162.184 621.713L162.816 619.782C163.097 618.904 164.344 618.904 164.643 619.782L165.275 621.713C166.047 624.119 167.944 626.015 170.367 626.806Z" fill="white"/>
<path d="M791.903 487.378L793.835 488.01C794.713 488.291 794.713 489.538 793.835 489.836L791.903 490.468C789.498 491.259 787.601 493.137 786.811 495.561L786.179 497.492C785.898 498.37 784.651 498.37 784.353 497.492L783.72 495.561C782.93 493.155 781.051 491.259 778.628 490.468L776.696 489.836C775.818 489.555 775.818 488.309 776.696 488.01L778.628 487.378C781.034 486.588 782.93 484.709 783.72 482.285L784.353 480.354C784.633 479.476 785.88 479.476 786.179 480.354L786.811 482.285C787.601 484.709 789.498 486.605 791.903 487.378Z" fill="white"/>
<path d="M167.47 319.154C186.294 326.477 203.801 362.282 201.712 373.766L171.912 363.844L159.884 339.278L167.47 319.154Z" fill="#2E344B"/>
<path d="M166.17 328.882C174.423 324.018 192.405 314.799 201.641 307.512C210.878 300.224 246.823 284.684 246.823 284.684L260.906 359.507C260.906 359.507 248.755 362.422 236.621 361.456C224.469 360.49 219.131 358.049 213.793 359.507C208.455 360.964 190.965 376.031 190.965 376.031L166.17 328.882Z" fill="#D8877B"/>
<path d="M190.947 375.995C190.947 375.995 199.622 368.532 206.611 363.598C193.388 354.625 174.862 331.024 171.052 326.09C169.208 327.108 167.54 328.057 166.17 328.864L190.947 375.995Z" fill="#B44E50"/>
<path d="M543.535 494.508C551.77 492.945 569.804 504.306 576.073 509.802C582.342 515.299 590.315 536.845 590.315 536.845L548.241 518.811L543.535 494.508Z" fill="#2E344B"/>
<path d="M535.317 510.101C535.317 510.101 559.971 485.306 567.645 474.594C575.301 463.883 581.552 429.711 589.735 417.173C597.918 404.618 612.686 393.432 617.954 388.954C623.222 384.476 626.927 390.324 626.348 392.905C625.768 395.504 611.931 417.033 611.931 417.033C611.931 417.033 619.447 416.716 621.343 425.918C621.343 425.918 629.614 426.164 628.209 434.347C628.209 434.347 637.481 439.211 632.915 444.338C624.873 453.347 624.82 459.106 618.797 468.062C612.791 477.017 605.082 487.659 605.082 487.659C605.082 487.659 581.394 540.989 580.393 543.921L535.317 510.101Z" fill="#D8877B"/>
<path d="M588.629 524.85L547.714 497.299C547.696 497.316 547.661 497.351 547.644 497.369C547.328 497.703 547.012 498.019 546.713 498.352C546.695 498.388 546.66 498.405 546.643 498.44L542.042 515.14L563.781 531.453L571.49 537.23L581.622 540.988C583.062 537.546 585.661 531.594 588.629 524.85Z" fill="#B44E50"/>
<path d="M298.063 233.777C203.433 249.405 216.146 334.273 220.87 362.878C225.593 391.483 190.93 416.225 209.052 439.404C227.174 462.601 269.704 485.008 319.329 477.281C368.953 469.555 407.287 456.718 419.368 436.314C433.539 412.344 407.55 381.421 405.197 338.908C402.826 296.396 377.628 220.642 298.063 233.777Z" fill="#2E344B"/>
<path d="M251.354 451.135C222.608 453.752 213.459 455.314 200.922 450.081C188.384 444.849 166.17 425.778 160.937 415.33C155.705 404.882 199.622 376.4 201.712 373.783C192.3 365.425 174.265 350.516 167.47 319.172C159.638 318.645 94.824 355.24 75.4729 388.692C56.1393 422.143 105.009 483.042 126.432 498.196C147.855 513.35 211.897 556.477 211.897 556.477C211.897 556.477 218.956 709.882 206.927 755.362H422.792C422.792 755.362 400.456 690.232 411.29 667.035C436.489 613.091 423.319 588.63 423.828 579.235C423.828 579.235 467.728 631.494 501.707 627.841C535.685 624.189 590.297 536.898 590.297 536.898L543.517 494.561C543.517 494.561 507.976 533.755 499.09 543.167C490.205 552.579 446.832 484.359 437.946 475.473C429.061 466.588 399.262 453.26 381.263 453.154C360.858 451.398 251.354 451.135 251.354 451.135Z" fill="#6E98E4"/>
<path d="M281.68 400.947C281.68 400.947 283.752 426.813 276.447 440.668C271.214 450.607 251.354 451.116 251.354 451.116C251.354 451.116 272.777 500.776 318.257 500.249C363.738 499.722 381.263 453.1 381.263 453.1C381.263 453.1 371.394 453.61 361.455 446.287C351.516 438.965 353.799 410.869 353.799 410.869L281.68 400.947Z" fill="#D8877B"/>
<path d="M341.999 409.253L281.68 400.947C281.68 400.947 283.664 425.918 276.816 439.93C332.376 458.439 355.889 427.603 355.889 427.603L341.999 409.253Z" fill="#B44E50"/>
<path d="M251.354 361.244C251.354 361.244 233.583 364.387 239.325 380.068C245.067 395.749 262.329 391.043 262.329 391.043C262.329 391.043 287.598 450.975 351.709 433.38C410.764 417.172 386.197 335.641 379.928 313.165C379.928 313.165 307.282 323.104 283.243 298.537C283.243 298.52 280.1 344.509 251.354 361.244Z" fill="#D8877B"/>
<path d="M612.247 419.175C610.86 417.454 608.173 417.138 606.119 417.384C603.695 417.665 601.412 418.683 599.253 419.807C596.987 420.966 594.74 422.195 592.597 423.548C588.629 426.059 584.906 429.114 582.325 433.065C580.955 435.172 580.007 437.473 579.533 439.949C579.006 442.67 578.936 445.673 577.794 448.237C577.601 448.658 578.198 449.045 578.444 448.623C579.445 446.815 580.095 444.918 580.498 442.899C580.92 440.809 581.324 438.702 582.167 436.735C583.817 432.872 586.785 429.711 590.139 427.253C593.651 424.654 597.619 422.371 601.57 420.527C603.625 419.561 605.996 418.754 608.296 419.122C609.244 419.281 610.544 419.597 611.035 420.51C611.562 421.476 610.983 422.793 610.579 423.706C608.7 427.973 605.065 431.098 601.57 434.048C601.289 434.277 601.202 434.733 601.307 435.067C602.554 439.439 602.448 444.128 601.114 448.465C600.447 450.643 599.463 452.697 598.199 454.594C596.952 456.473 595.214 457.93 593.932 459.756C593.475 460.406 594.336 460.986 594.898 460.722C597.058 459.756 598.673 457.544 599.973 455.63C601.342 453.61 602.413 451.345 603.151 449.027C604.573 444.532 604.731 439.703 603.485 435.155C606.751 432.328 610.192 429.307 611.984 425.286C612.791 423.407 613.669 420.931 612.247 419.175Z" fill="#B44E50"/>
<path d="M634.039 438.649C633.653 437.437 633.003 436.348 632.178 435.4C631.44 434.575 630.228 433.363 629.052 433.381C628.947 433.381 628.841 433.416 628.736 433.468C628.824 432.151 628.63 430.799 628.051 429.412C626.892 426.69 624.082 424.882 621.132 424.934C621.22 423.863 621.08 422.792 620.57 421.668C619.201 418.665 615.987 416.822 612.756 416.593C611.931 416.541 611.738 417.875 612.563 418.051C615.408 418.648 618.235 419.93 619.183 422.932C620.131 425.988 618.024 428.868 616.584 431.396C615.109 433.995 613.757 436.822 611.843 439.14C610.965 440.194 609.947 441.054 608.717 441.687C608.103 442.003 607.471 442.213 606.786 442.336C606.189 442.442 605.521 442.442 604.977 442.723C604.854 442.775 604.854 442.933 604.942 443.039C605.627 443.829 606.874 443.776 607.945 443.53C608.05 444.602 609.104 445.743 609.859 446.41C610.86 447.288 612.036 447.85 613.371 447.973C614.337 448.078 615.25 447.955 616.145 447.71C616.128 447.762 616.093 447.815 616.093 447.868C616.18 450.028 617.673 452.363 619.71 453.188C622.151 454.172 624.855 452.89 626.822 451.432C629.034 449.799 630.984 447.797 632.617 445.585C634.109 443.53 634.829 441.16 634.039 438.649ZM611.123 445.743C610.473 445.321 609.894 444.777 609.367 444.215C609.069 443.899 608.823 443.583 608.472 443.372C608.665 443.32 608.823 443.267 608.981 443.197C610.438 442.67 611.703 441.687 612.739 440.545C615.162 437.858 616.777 434.364 618.604 431.256C619.499 429.711 620.412 428.113 620.851 426.444C620.887 426.444 620.922 426.462 620.957 426.462C624.135 426.532 626.629 428.815 626.839 432.029C627.05 435.137 625.435 437.894 623.415 440.124C622.379 441.265 621.238 442.301 620.079 443.302C618.832 444.373 617.497 445.479 615.935 446.041C614.354 446.621 612.581 446.674 611.123 445.743ZM629.14 446.761C627.331 448.728 625.101 451.064 622.414 451.731C621.15 452.047 619.815 451.819 618.85 450.906C617.884 449.992 617.585 448.763 617.058 447.604C617.023 447.534 616.971 447.499 616.9 447.464C618.604 446.832 620.167 445.708 621.536 444.549C624.574 442.003 627.805 438.491 628.56 434.54C628.876 434.908 629.28 435.119 629.684 435.435C630.176 435.804 630.632 436.243 631.001 436.717C631.703 437.595 632.195 438.631 632.388 439.737C632.915 442.529 630.913 444.847 629.14 446.761Z" fill="#B44E50"/>
<path d="M612.036 458.123C612.001 457.228 611.948 456.35 611.861 455.454C611.703 453.733 611.404 452.012 610.86 450.362C609.789 447.183 607.576 444.058 604.679 442.302C604.31 442.074 603.765 442.548 604.046 442.934C605.012 444.233 606.312 445.305 607.295 446.604C608.313 447.939 609.016 449.449 609.49 451.047C609.929 452.574 610.157 454.172 610.315 455.753C610.386 456.596 610.438 457.421 610.491 458.264C610.526 458.949 610.491 459.704 610.983 460.231C611.158 460.406 611.492 460.424 611.667 460.231C612.159 459.651 612.071 458.861 612.036 458.123Z" fill="#B44E50"/>
<path d="M380.385 314.745C380.227 314.183 380.086 313.656 379.946 313.165C379.946 313.165 307.3 323.104 283.26 298.537C283.26 298.537 280.117 344.527 251.371 361.261C282.207 352.113 289.002 320.487 287.703 310.302C287.685 310.267 318.415 330.918 380.385 314.745Z" fill="#B44E50"/>
<path d="M255.638 383.67C255.586 383.67 255.516 383.687 255.428 383.705C255.375 383.722 255.322 383.74 255.287 383.74C254.708 383.915 255.164 383.845 254.743 383.933C254.567 383.968 254.409 384.021 254.234 384.056C254.216 384.056 254.234 384.056 254.216 384.056C254.146 384.056 254.058 384.056 253.988 384.056C253.97 384.056 253.988 384.056 253.97 384.056C253.865 384.038 253.777 384.003 253.672 383.968C253.935 384.056 253.496 383.792 253.689 383.968C253.496 383.792 253.443 383.67 253.373 383.476C253.25 383.16 253.321 383.529 253.321 383.195C253.321 383.16 253.356 382.879 253.356 382.844C253.408 382.721 253.514 382.458 253.408 382.633C253.584 382.317 253.391 382.633 253.602 382.37C253.812 382.107 253.566 382.335 253.83 382.177C253.847 382.159 254.111 382.019 254.163 382.001C254.357 381.931 254.567 381.861 254.778 381.808C254.813 381.808 254.796 381.808 254.813 381.791C254.919 381.791 255.024 381.773 255.129 381.773C256.833 381.755 258.027 379.438 256.604 378.208C256.271 377.91 256.095 377.383 255.867 376.979C255.638 376.575 255.428 376.154 255.199 375.75C254.76 374.925 254.321 374.099 253.847 373.292C252.846 371.571 251.547 370.061 249.615 369.411C247.789 368.779 245.84 369.358 244.488 370.675C243.908 371.237 243.434 371.922 243.048 372.624C242.609 373.414 242.082 374.468 242.363 375.381C242.627 376.277 243.557 376.575 244.365 376.189C244.98 375.89 245.366 375.118 245.717 374.538C245.998 374.064 246.226 373.731 246.613 373.344C246.841 373.116 246.911 373.063 247.087 372.958C247.385 372.782 247.315 372.782 247.614 372.73C247.684 372.712 247.701 372.712 247.701 372.712C247.824 372.695 247.947 372.695 248.07 372.712C248.386 372.747 248.65 372.905 248.895 373.063C249.791 373.66 250.388 374.767 250.932 375.803C251.284 376.47 251.617 377.155 251.968 377.822C252.074 378.033 252.197 378.261 252.302 378.472C251.6 378.876 250.985 379.402 250.493 380.122C249.492 381.562 249.352 383.476 250.072 385.074C250.739 386.584 252.214 387.568 253.865 387.585C255.586 387.603 257.272 386.514 257.201 384.67C257.201 383.81 256.376 383.336 255.638 383.67Z" fill="#B44E50"/>
<path d="M580.569 539.496C574.686 535.317 568.962 530.945 563.395 526.361C557.916 521.848 552.596 517.125 547.398 512.278C544.676 509.732 541.989 507.168 539.391 504.499C538.548 503.639 537.722 502.708 536.915 501.777C536.405 502.339 535.896 502.901 535.334 503.516C535.966 504.218 536.616 504.921 537.231 505.588C539.742 508.345 542.358 511.014 544.992 513.648C550.278 518.916 555.809 523.938 561.499 528.767C567.012 533.456 572.702 537.951 578.514 542.253C580.358 543.623 582.254 544.922 584.133 546.257C584.853 545.186 585.503 544.202 586.1 543.307C584.274 542.042 582.395 540.796 580.569 539.496Z" fill="#2E344B"/>
<path d="M160.902 348.075C166.17 358.944 173.37 368.954 181.939 377.453C184.117 379.613 186.417 381.65 188.788 383.599C189.595 382.984 190.386 382.405 191.141 381.825C189.385 380.385 187.664 378.91 186.013 377.365C181.606 373.256 177.532 368.796 173.862 364.002C166.662 354.572 160.99 343.931 157.215 332.675C156.266 329.83 155.406 326.95 154.616 324.053C154.054 324.334 153.474 324.632 152.877 324.931C153.316 327.038 153.808 329.128 154.388 331.182C156.003 336.977 158.268 342.649 160.902 348.075Z" fill="#2E344B"/>
<path d="M391.289 454.224C382.597 474.664 366.899 492.013 347.442 502.795C341.331 506.184 334.553 509.486 327.652 510.768C319.926 512.207 311.286 510.451 303.788 508.502C289.108 504.674 275.674 497.387 264.559 487.026C258.536 481.407 253.285 474.98 249.001 467.939C245.893 462.846 243.592 457.49 241.345 452.047C240.677 452.117 240.028 452.17 239.378 452.222C240.976 457.508 243.487 462.636 246.121 467.324C249.773 473.821 254.199 479.879 259.291 485.306C269.774 496.526 283.243 504.85 297.8 509.661C305.263 512.137 313.218 513.735 321.085 514.016C329.074 514.315 336.502 511.435 343.614 508.081C356.029 502.233 367.25 493.752 376.434 483.55C384.02 475.121 390.253 465.375 394.784 454.944C393.59 454.698 392.431 454.453 391.289 454.224Z" fill="#2E344B"/>
<path d="M363.755 684.12C360.524 684.928 357.539 687 354.501 688.334C351.323 689.722 348.074 690.968 344.773 692.022C338.188 694.129 331.392 695.569 324.526 696.324C310.777 697.852 296.711 696.658 283.436 692.76C275.973 690.565 269.177 687.158 262.048 684.155C261.521 683.944 261.065 684.752 261.486 685.103C266.807 689.423 273.479 692.338 279.889 694.674C286.649 697.15 293.691 698.906 300.82 699.871C315.044 701.785 329.619 700.872 343.438 696.904C347.337 695.78 351.182 694.445 354.905 692.847C358.4 691.355 362.737 689.792 365.459 687.053C366.688 685.771 365.441 683.699 363.755 684.12Z" fill="#2E344B"/>
<path d="M379.77 691.215C377.382 692.093 375.714 693.955 373.729 695.535C371.745 697.116 369.533 698.468 367.303 699.697C365.055 700.926 362.737 701.997 360.384 703.016C359.664 703.332 354.466 705.228 355.397 706.51C356.011 707.353 357.364 706.897 358.224 706.721C359.471 706.458 360.682 706.019 361.894 705.597C364.493 704.649 367.057 703.613 369.55 702.401C371.956 701.225 374.204 699.837 376.328 698.204C377.382 697.397 378.383 696.501 379.226 695.465C380.139 694.324 380.56 693.393 380.753 691.953C380.806 691.479 380.209 691.057 379.77 691.215Z" fill="#2E344B"/>
<path d="M214.408 558.865C214.425 558.812 214.443 558.777 214.443 558.724C214.443 558.672 214.425 558.637 214.425 558.601C214.443 556.775 214.425 554.949 214.285 553.123C214.056 550.296 213.653 547.468 213.126 544.694C212.616 541.955 212.125 539.233 210.615 536.862C210.562 536.774 210.439 536.81 210.421 536.915C210.176 539.847 210.86 542.675 211.212 545.59C211.563 548.522 211.703 551.455 211.826 554.387C211.844 554.773 211.826 555.142 211.844 555.528C211.528 555.212 211.212 554.879 210.878 554.563C210.228 553.948 209.631 553.298 208.964 552.701C208.297 552.104 207.7 551.437 206.857 551.103C206.611 551.016 206.435 551.279 206.47 551.49C206.629 552.368 207.226 553.088 207.752 553.808C208.297 554.545 208.911 555.23 209.526 555.915C210.105 556.582 210.755 557.197 211.387 557.829C211.545 557.987 211.721 558.127 211.897 558.285C211.897 559.919 211.861 561.552 211.774 563.185C211.651 565.696 211.528 568.505 212.862 570.735C213.319 571.491 214.776 571.245 214.653 570.244C214.162 566.468 214.355 562.658 214.408 558.865Z" fill="#2E344B"/>
<path d="M423.547 569.26C422.95 566.995 422.318 564.729 421.545 562.517C421.141 561.358 420.72 560.216 420.281 559.075C419.824 557.899 419.105 556.898 418.613 555.756C418.578 555.686 418.472 555.704 418.49 555.791C418.806 556.95 418.824 558.215 419.122 559.391C419.421 560.568 419.719 561.744 419.983 562.938C420.492 565.133 421.036 567.328 421.51 569.541C422.494 574.124 423.301 578.742 424.425 583.273C424.601 584.01 425.76 583.852 425.742 583.097C425.619 578.444 424.741 573.79 423.547 569.26Z" fill="#2E344B"/>
<path d="M310.988 333.676C311.479 332.675 311.198 333.202 311.058 333.518C311.023 333.57 311.005 333.641 310.988 333.676Z" fill="#2E344B"/>
<path d="M310.513 330.041C309.969 329.584 309.442 329.145 308.757 328.952C307.967 328.724 307.124 328.794 306.317 328.917C305.702 329.023 305.105 329.216 304.508 329.409C303.068 329.901 301.733 330.656 300.504 331.534C298.046 333.29 295.359 335.59 294.639 338.645C294.376 339.734 294.727 340.858 295.623 341.543C296.483 342.21 297.73 342.333 298.678 341.754C299.486 341.262 300.188 340.718 300.891 340.085C301.084 339.91 301.277 339.752 301.488 339.594C301.154 339.875 301.927 339.242 302.172 339.049C302.155 339.067 302.137 339.067 302.102 339.084C302.137 339.067 302.155 339.049 302.19 339.032L302.208 339.014C302.295 338.944 302.418 338.856 302.489 338.821C302.98 338.487 303.454 338.154 303.964 337.855C304.613 337.486 305.263 337.153 305.948 336.854C306.545 336.608 307.124 336.363 307.721 336.117C307.423 336.24 307.124 336.363 306.826 336.486C307.546 336.187 308.336 335.976 309.021 335.608C309.355 335.432 309.618 335.239 309.916 335.011C310.408 334.624 310.742 334.185 310.988 333.623C311.005 333.588 311.023 333.553 311.04 333.518C311.514 332.412 311.532 330.884 310.513 330.041Z" fill="#2E344B"/>
<path d="M302.19 339.049C302.611 338.786 302.629 338.768 302.524 338.821C302.418 338.891 302.313 338.961 302.208 339.031C302.208 339.031 302.19 339.031 302.19 339.049Z" fill="#2E344B"/>
<path d="M364.23 327.776C363.791 327.038 363.246 326.617 362.561 326.142C361.279 325.264 359.822 324.703 358.329 324.228C356.889 323.772 355.414 323.491 353.904 323.421C353.255 323.386 352.605 323.403 351.973 323.421C351.165 323.456 350.427 323.544 349.76 324.053C348.952 324.685 348.303 325.932 348.724 326.968C349.005 327.688 349.356 328.32 350.059 328.724C350.462 328.97 350.937 329.057 351.393 329.163C351.92 329.303 352.447 329.461 352.974 329.637C353.869 329.953 354.765 330.269 355.66 330.62C356.31 330.901 356.942 331.217 357.557 331.551C357.908 331.744 358.259 331.885 358.628 332.06C358.803 332.148 358.979 332.236 359.155 332.324C359.804 332.64 360.331 332.763 360.998 332.85C361.771 332.921 362.491 332.868 363.229 332.429C363.931 332.008 364.475 331.323 364.686 330.532C364.932 329.619 364.721 328.601 364.23 327.776Z" fill="#2E344B"/>
<path d="M361.262 332.937C361.157 332.92 361.069 332.902 360.981 332.885C360.77 332.867 360.559 332.85 360.349 332.814L361.262 332.937Z" fill="#2E344B"/>
<path d="M318.064 356.064C317.362 351.428 314.868 347.038 310.619 347.371C308.67 347.529 307.282 348.565 306.264 350.181C305.807 350.901 305.579 351.744 305.351 352.552C305.123 353.394 305.035 354.237 304.982 355.098C304.648 360.155 310.303 372.974 316.589 365.072C318.099 363.14 318.591 359.523 318.064 356.064Z" fill="#2E344B"/>
<path d="M361.174 351.64C360.524 347.373 358.224 343.334 354.326 343.65C352.535 343.791 351.253 344.757 350.322 346.232C349.901 346.899 349.69 347.671 349.497 348.427C349.286 349.199 349.198 349.972 349.145 350.78C348.829 355.433 354.045 367.233 359.822 359.946C361.209 358.155 361.666 354.818 361.174 351.64Z" fill="#2E344B"/>
<path d="M343.755 369.094C342.719 368.303 341.577 367.671 340.611 366.776C339.61 365.863 338.768 364.809 338.1 363.632C337.433 362.438 336.941 361.192 336.502 359.892C336.397 359.576 335.853 357.75 335.168 358.084C333.306 358.997 334.606 362.772 335.203 364.142C336.151 366.337 337.609 368.339 339.47 369.831C341.015 371.078 343.28 372.026 343.263 374.327C343.245 375.275 342.894 376.188 342.438 377.013C342.192 377.452 341.928 377.891 341.682 378.33C341.402 378.839 341.261 379.401 340.91 379.875C340.488 380.437 341.191 381.28 341.823 381.07C343.087 380.631 344.071 380.297 344.914 379.173C345.669 378.172 346.178 376.996 346.389 375.766C346.863 373.097 345.897 370.744 343.755 369.094Z" fill="#B44E50"/>
<path d="M350.937 390.5C350.849 390.43 350.779 390.377 350.691 390.324C349.426 388.832 346.863 388.481 345.054 388.428C342.982 388.393 340.998 388.797 339.119 389.657C337.573 390.359 336.116 391.431 334.992 392.713C333.956 393.907 332.411 395.908 332.955 397.612C333.166 398.261 333.939 398.648 334.553 398.261C335.203 397.858 335.572 397.155 336.011 396.541C336.397 395.996 336.818 395.487 337.31 395.013C338.258 394.117 339.417 393.397 340.664 392.993C342.121 392.502 343.667 392.326 345.194 392.396C346.002 392.432 346.828 392.502 347.635 392.607C348.092 392.677 348.531 392.748 348.987 392.748C349.444 392.748 349.883 392.66 350.34 392.695C351.639 392.818 351.762 391.115 350.937 390.5Z" fill="#B44E50"/>
<path d="M316.642 348.531C316.501 348.04 316.256 347.618 315.904 347.267C315.711 347.109 315.518 346.968 315.325 346.81C314.868 346.547 314.394 346.424 313.867 346.424C313.464 346.407 313.095 346.494 312.761 346.67C312.41 346.793 312.094 346.986 311.83 347.267C311.55 347.53 311.356 347.829 311.233 348.198C311.058 348.531 310.97 348.918 310.988 349.304C311.023 349.567 311.058 349.813 311.093 350.077C311.233 350.568 311.479 350.99 311.83 351.341C312.024 351.499 312.217 351.639 312.41 351.797C312.867 352.061 313.341 352.184 313.867 352.184C314.271 352.201 314.64 352.114 314.974 351.938C315.325 351.815 315.641 351.622 315.904 351.341C316.185 351.077 316.379 350.779 316.501 350.41C316.677 350.059 316.765 349.69 316.747 349.304L316.642 348.531Z" fill="white"/>
<path d="M360.559 345.055C360.437 344.598 360.208 344.212 359.875 343.896C359.699 343.755 359.523 343.615 359.33 343.475C358.909 343.229 358.47 343.106 357.996 343.106C357.627 343.088 357.293 343.176 356.977 343.334C356.644 343.439 356.363 343.615 356.117 343.878C355.853 344.124 355.678 344.405 355.572 344.721C355.414 345.037 355.327 345.371 355.344 345.74C355.379 345.968 355.414 346.214 355.432 346.442C355.555 346.899 355.783 347.285 356.117 347.619C356.292 347.759 356.468 347.9 356.644 348.04C357.065 348.286 357.504 348.409 357.978 348.409C358.347 348.426 358.681 348.339 358.997 348.181C359.33 348.075 359.611 347.9 359.857 347.636C360.12 347.39 360.296 347.109 360.401 346.776C360.559 346.46 360.647 346.126 360.63 345.757L360.559 345.055Z" fill="white"/>
<path d="M309.53 374.96C310.092 379.034 304.982 383.108 298.116 384.038C291.25 384.969 285.245 382.44 284.683 378.367C284.121 374.293 289.231 370.219 296.097 369.288C302.945 368.34 308.968 370.886 309.53 374.96Z" fill="#C85F64"/>
<path d="M383.616 365.775C384.072 369.076 379.928 372.36 374.379 373.115C368.83 373.87 363.966 371.815 363.527 368.531C363.071 365.23 367.215 361.947 372.764 361.191C378.295 360.436 383.159 362.491 383.616 365.775Z" fill="#C85F64"/>
<path d="M304.877 348.321C304.789 347.935 304.578 347.548 304.28 347.285C304.087 347.127 303.893 346.951 303.718 346.776C303.542 346.6 303.349 346.442 303.156 346.284C303.05 346.196 302.963 346.108 302.875 346.021C302.664 345.827 302.436 345.669 302.172 345.582C301.962 345.511 301.769 345.511 301.558 345.547C301.54 345.547 301.523 345.564 301.505 345.564C301.207 345.599 300.926 345.705 300.715 345.933C300.452 346.196 300.311 346.565 300.329 346.934C300.329 346.951 300.329 346.969 300.329 346.969C300.311 347.232 300.381 347.355 300.469 347.566C300.557 347.777 300.697 347.97 300.873 348.128C301.049 348.268 301.242 348.409 301.417 348.567C301.628 348.725 301.839 348.883 302.067 349.023C302.295 349.146 302.506 349.269 302.734 349.392C302.928 349.498 303.121 349.568 303.331 349.603C303.437 349.62 303.525 349.62 303.63 349.638C303.823 349.656 304.016 349.62 304.209 349.568C304.719 349.41 305 348.83 304.877 348.321Z" fill="#C85F64"/>
<path d="M303.823 351.534C303.718 351.271 303.542 351.078 303.296 350.92C302.875 350.656 302.436 350.533 301.944 350.568C301.663 350.586 301.382 350.586 301.101 350.586C300.82 350.586 300.522 350.603 300.241 350.621C299.977 350.639 299.732 350.691 299.468 350.762C299.293 350.814 299.117 350.884 298.959 350.955C298.678 351.095 298.52 351.323 298.344 351.569C298.204 351.798 298.134 352.061 298.134 352.324C298.134 352.588 298.204 352.851 298.344 353.079C298.573 353.554 298.994 353.764 299.451 353.94C299.732 354.045 299.96 354.098 300.294 354.116C300.715 354.133 301.172 354.116 301.575 354.01C301.856 353.94 302.137 353.852 302.418 353.764C302.787 353.624 303.103 353.483 303.384 353.185C303.648 352.921 303.718 352.693 303.858 352.342C303.876 352.219 303.893 352.114 303.911 351.991C303.946 351.85 303.893 351.692 303.823 351.534Z" fill="#C85F64"/>
<path d="M363.106 338.908C362.175 338.522 361.455 339.523 361.104 340.26C360.998 340.488 360.893 340.717 360.77 340.945C360.718 341.068 360.647 341.173 360.595 341.296C360.524 341.437 360.454 341.577 360.419 341.718C360.366 341.893 360.366 342.051 360.366 342.227C360.349 342.736 360.7 343.193 361.139 343.386C361.35 343.474 361.56 343.509 361.789 343.474C362.087 343.439 362.28 343.316 362.509 343.122C362.684 342.982 362.825 342.806 362.93 342.613C362.983 342.49 363.035 342.367 363.088 342.262C363.229 341.946 363.369 341.63 363.492 341.331C363.861 340.559 364.054 339.312 363.106 338.908Z" fill="#C85F64"/>
<path d="M366.741 343.789C366.319 343.315 365.634 343.35 365.108 343.526C364.897 343.596 364.704 343.666 364.493 343.754C364.159 343.895 363.773 344.018 363.51 344.264C363.334 344.439 363.123 344.65 363 344.861C362.754 345.282 362.965 345.914 363.474 346.02C363.65 346.055 363.843 346.055 364.019 346.072C364.089 346.072 364.142 346.09 364.212 346.09C364.352 346.107 364.51 346.072 364.651 346.037C364.879 345.984 365.125 345.949 365.353 345.914C365.441 345.897 365.529 345.897 365.634 345.879C365.775 345.861 365.898 345.861 366.038 345.826C366.161 345.791 366.284 345.721 366.389 345.668C366.6 345.563 366.828 345.387 366.934 345.159C366.969 345.071 367.004 344.983 367.057 344.878C367.109 344.72 367.109 344.562 367.074 344.422C367.022 344.193 366.916 343.983 366.741 343.789Z" fill="#C85F64"/>
<path d="M823.81 764.932H54.1902C50.5552 764.932 47.6227 761.982 47.6227 758.364V756.485C47.6227 752.85 50.5728 749.918 54.1902 749.918H823.827C827.462 749.918 830.395 752.868 830.395 756.485V758.364C830.395 761.982 827.445 764.932 823.81 764.932Z" fill="#2E344B"/>
<path d="M539.355 335.659L551.103 340.892L553.86 330.725L539.355 335.659Z" fill="#D3723F"/>
<path d="M599.165 214.057L593.265 205.628C591.965 203.766 589.84 202.66 587.558 202.66H542.867C539.022 202.66 535.896 205.786 535.896 209.631V217.042V329.654C535.896 333.5 539.022 336.625 542.867 336.625H703.296C707.141 336.625 710.267 333.5 710.267 329.654V224.013C710.267 220.167 707.141 217.042 703.296 217.042H604.872C602.589 217.024 600.464 215.918 599.165 214.057Z" fill="#D3723F"/>
<path d="M553.614 341.525H715.061C718.625 341.525 721.523 338.628 721.523 335.063V228.404C721.523 224.839 718.625 221.941 715.061 221.941H553.614C550.049 221.941 547.152 224.839 547.152 228.404V335.063C547.152 338.628 550.032 341.525 553.614 341.525Z" fill="#EBAB6F"/>
<path d="M748.52 226.25C752.259 203.208 736.611 181.497 713.569 177.757C690.527 174.018 668.816 189.666 665.076 212.708C661.337 235.75 676.985 257.461 700.027 261.201C723.069 264.94 744.78 249.293 748.52 226.25Z" fill="white"/>
<path d="M715.57 219.483L728.213 206.857C730.637 204.434 730.637 200.501 728.213 198.077C725.79 195.654 721.857 195.654 719.433 198.077L706.79 210.72L694.164 198.077C691.741 195.654 687.808 195.654 685.384 198.077C682.961 200.501 682.961 204.434 685.384 206.857L698.028 219.483L685.384 232.126C682.961 234.549 682.961 238.483 685.384 240.906C687.808 243.329 691.741 243.329 694.164 240.906L706.79 228.28L719.433 240.906C721.857 243.329 725.79 243.329 728.213 240.906C730.637 238.483 730.637 234.549 728.213 232.126L715.57 219.483Z" fill="#C85F64"/>
<path d="M297.111 120.675C297.111 119.437 297.516 118.413 298.325 117.604C299.135 116.747 300.158 116.319 301.396 116.319C303.348 116.319 305.109 116.033 306.68 115.462C308.251 114.843 309.489 113.867 310.394 112.534C311.346 111.201 311.822 109.439 311.822 107.249C311.822 105.631 311.417 104.203 310.608 102.965C309.846 101.727 308.775 100.751 307.395 100.037C306.062 99.323 304.538 98.9659 302.824 98.9659C301.491 98.9659 300.23 99.2039 299.04 99.68C297.897 100.156 296.85 100.799 295.897 101.608C295.136 102.275 294.207 102.774 293.112 103.108C292.065 103.393 290.994 103.132 289.899 102.322C288.756 101.465 288.138 100.442 288.042 99.2515C287.947 98.0614 288.399 96.9664 289.399 95.9667C291.113 94.2052 293.112 92.8484 295.398 91.8963C297.73 90.8966 300.206 90.3967 302.824 90.3967C306.109 90.3967 309.061 91.1584 311.679 92.6818C314.345 94.1576 316.464 96.1571 318.035 98.6803C319.606 101.203 320.391 104.06 320.391 107.249C320.391 109.63 320.034 111.748 319.32 113.605C318.606 115.414 317.582 116.985 316.249 118.318C314.964 119.603 313.441 120.651 311.679 121.46C309.965 122.222 308.085 122.769 306.038 123.103C305.942 123.15 305.847 123.198 305.752 123.245C305.704 123.293 305.681 123.364 305.681 123.46V126.102C305.681 127.34 305.276 128.387 304.467 129.244C303.657 130.053 302.634 130.458 301.396 130.458C300.158 130.458 299.135 130.053 298.325 129.244C297.516 128.387 297.111 127.34 297.111 126.102V120.675ZM301.039 143.24C299.658 143.24 298.587 142.883 297.826 142.169C297.111 141.407 296.754 140.336 296.754 138.956V137.742C296.754 136.361 297.111 135.314 297.826 134.6C298.587 133.838 299.658 133.457 301.039 133.457H301.967C303.348 133.457 304.395 133.838 305.109 134.6C305.871 135.314 306.252 136.361 306.252 137.742V138.956C306.252 140.336 305.871 141.407 305.109 142.169C304.395 142.883 303.348 143.24 301.967 143.24H301.039Z" fill="#6E98E4"/>
<path d="M395.801 166.374C396.191 165.398 396.833 164.718 397.727 164.335C398.636 163.914 399.579 163.899 400.555 164.289C402.095 164.905 403.575 165.235 404.994 165.28C406.429 165.288 407.713 164.908 408.848 164.142C410.019 163.391 410.951 162.151 411.641 160.424C412.152 159.147 412.283 157.892 412.035 156.66C411.825 155.444 411.288 154.336 410.424 153.337C409.598 152.353 408.508 151.591 407.156 151.05C406.105 150.629 405.034 150.419 403.945 150.419C402.894 150.434 401.865 150.611 400.858 150.949C400.047 151.235 399.157 151.336 398.188 151.254C397.272 151.149 396.509 150.604 395.901 149.62C395.27 148.584 395.104 147.581 395.405 146.612C395.705 145.643 396.407 144.922 397.511 144.448C399.419 143.599 401.425 143.16 403.528 143.13C405.683 143.077 407.794 143.464 409.86 144.29C412.451 145.326 414.54 146.858 416.125 148.886C417.762 150.891 418.803 153.137 419.246 155.623C419.69 158.109 419.408 160.611 418.402 163.127C417.651 165.005 416.701 166.564 415.552 167.803C414.418 169.005 413.115 169.921 411.642 170.553C410.223 171.161 408.691 171.507 407.046 171.59C405.453 171.65 403.797 171.488 402.077 171.106C401.987 171.113 401.897 171.121 401.806 171.128C401.754 171.151 401.713 171.199 401.682 171.275L400.849 173.359C400.458 174.336 399.809 175.034 398.9 175.455C398.006 175.838 397.071 175.834 396.094 175.444C395.118 175.053 394.438 174.411 394.055 173.517C393.687 172.586 393.698 171.632 394.089 170.656L395.801 166.374ZM391.78 185.415C390.691 184.98 389.959 184.36 389.583 183.557C389.26 182.73 389.316 181.773 389.752 180.684L390.135 179.726C390.57 178.637 391.182 177.923 391.971 177.585C392.812 177.224 393.777 177.262 394.867 177.697L395.599 177.99C396.688 178.426 397.394 179.057 397.717 179.883C398.093 180.687 398.063 181.633 397.627 182.722L397.244 183.68C396.809 184.769 396.171 185.494 395.329 185.855C394.541 186.193 393.602 186.144 392.513 185.708L391.78 185.415Z" fill="#6E98E4"/>
<path d="M192.367 175.861C191.986 174.881 191.991 173.946 192.383 173.056C192.76 172.128 193.439 171.473 194.419 171.092C195.965 170.491 197.271 169.723 198.34 168.786C199.393 167.813 200.073 166.659 200.379 165.325C200.722 163.976 200.557 162.434 199.882 160.7C199.384 159.418 198.624 158.412 197.602 157.681C196.618 156.935 195.469 156.492 194.156 156.352C192.88 156.197 191.564 156.383 190.207 156.911C189.151 157.322 188.225 157.899 187.429 158.642C186.671 159.371 186.04 160.202 185.535 161.136C185.137 161.899 184.556 162.58 183.791 163.181C183.05 163.73 182.121 163.853 181.005 163.549C179.836 163.222 179.031 162.602 178.589 161.689C178.147 160.776 178.168 159.769 178.652 158.67C179.467 156.747 180.632 155.057 182.149 153.6C183.688 152.09 185.495 150.931 187.568 150.125C190.169 149.114 192.741 148.808 195.284 149.208C197.849 149.556 200.143 150.487 202.164 152.001C204.185 153.516 205.686 155.536 206.668 158.062C207.401 159.947 207.771 161.734 207.777 163.424C207.769 165.077 207.442 166.636 206.797 168.102C206.175 169.516 205.291 170.814 204.145 171.997C203.022 173.128 201.702 174.141 200.183 175.035C200.123 175.102 200.062 175.169 200.001 175.236C199.978 175.288 199.981 175.352 200.011 175.428L200.824 177.52C201.205 178.5 201.207 179.454 200.83 180.382C200.439 181.272 199.753 181.908 198.773 182.289C197.792 182.67 196.857 182.665 195.967 182.273C195.062 181.844 194.42 181.139 194.038 180.159L192.367 175.861ZM202.426 192.521C201.333 192.946 200.374 192.993 199.551 192.662C198.751 192.279 198.139 191.541 197.714 190.447L197.34 189.486C196.915 188.393 196.875 187.453 197.221 186.668C197.589 185.83 198.32 185.199 199.413 184.774L200.149 184.488C201.242 184.063 202.188 184.042 202.988 184.425C203.812 184.756 204.436 185.468 204.861 186.562L205.235 187.523C205.66 188.616 205.688 189.582 205.319 190.419C204.974 191.205 204.254 191.81 203.161 192.235L202.426 192.521Z" fill="#6E98E4"/>
<path d="M104.131 705.491C104.131 705.491 92.2603 640.291 129.347 640.291C166.434 640.291 155.266 703.331 155.266 703.331L104.131 705.491Z" fill="#4F6E59"/>
<path d="M158.9 700.012H99.811L102.796 749.865H155.915L158.9 700.012Z" fill="#C85F64"/>
<path d="M126.608 642.609C126.572 642.363 126.502 642.134 126.45 641.889C126.309 641.344 126.081 640.835 125.835 640.326C125.624 639.887 125.414 639.448 125.115 639.061C124.939 638.833 124.764 638.605 124.588 638.377C124.413 638.148 124.237 638.008 123.991 637.867C123.552 637.639 123.043 637.92 123.025 638.429C123.008 638.921 123.183 639.36 123.306 639.834C123.412 640.291 123.57 640.73 123.675 641.186C123.78 641.625 123.868 642.082 123.974 642.521C124.026 642.749 124.079 642.96 124.132 643.188C124.167 643.381 124.219 643.574 124.325 643.75C124.43 643.943 124.588 644.084 124.764 644.189C124.852 644.224 124.904 644.242 124.957 644.277C125.378 644.505 125.975 644.435 126.256 644.013C126.256 644.013 126.256 644.013 126.274 643.996C126.274 643.996 126.274 643.978 126.292 643.978C126.309 643.961 126.327 643.943 126.344 643.926C126.327 643.943 126.309 643.961 126.309 643.978C126.45 643.838 126.555 643.662 126.608 643.469C126.713 643.17 126.66 642.907 126.608 642.609Z" fill="white"/>
<path d="M110.575 652.232C110.839 652.285 110.663 652.268 110.575 652.232Z" fill="white"/>
<path d="M112.7 653.461C112.489 653.233 112.244 653.04 111.98 652.864C111.822 652.777 111.664 652.706 111.506 652.636C111.559 652.654 111.576 652.671 111.453 652.618C111.401 652.601 111.348 652.566 111.295 652.548C111.12 652.46 110.927 652.373 110.733 652.302C110.681 652.285 110.628 652.25 110.575 652.232C110.347 652.127 110.101 652.021 109.873 651.899C108.96 651.442 108.134 650.845 107.256 650.318C106.519 649.897 105.588 650.757 106.062 651.512C106.378 652.021 106.73 652.478 107.186 652.864C107.643 653.268 108.134 653.637 108.644 653.988C109.083 654.287 109.539 654.568 110.013 654.778C110.329 654.919 110.663 655.094 110.997 655.147C111.207 655.182 111.418 655.235 111.629 655.235C111.84 655.235 112.033 655.182 112.244 655.13C113.034 654.972 113.192 653.971 112.7 653.461Z" fill="white"/>
<path d="M125.712 654.761C125.396 654.199 124.957 653.689 124.5 653.215C124.29 652.987 124.079 652.741 123.833 652.548C123.71 652.443 123.57 652.337 123.447 652.232C123.341 652.144 123.254 652.056 123.131 651.986C123.06 651.933 122.78 651.828 122.938 651.898C123.078 651.969 122.902 651.881 122.885 651.881C122.586 651.74 122.288 651.74 122.024 651.933C121.761 652.127 121.673 652.443 121.743 652.759C121.743 652.794 121.761 652.811 121.761 652.847C121.761 652.864 121.761 652.864 121.761 652.882C121.743 652.724 121.743 652.724 121.761 652.882C121.779 653.04 121.831 653.163 121.902 653.303C121.972 653.444 122.042 653.584 122.112 653.725C122.235 653.97 122.411 654.199 122.569 654.445C122.938 654.989 123.306 655.533 123.78 655.99C123.938 656.13 124.097 656.271 124.255 656.394C124.536 656.587 124.887 656.64 125.22 656.552C125.572 656.464 125.8 656.165 125.905 655.832C126.028 655.463 125.888 655.077 125.712 654.761Z" fill="white"/>
<path d="M107.098 668.649C106.817 668.386 106.343 668.158 105.957 668.052C105.694 667.982 105.43 668 105.167 668C104.956 668 104.763 667.982 104.552 667.982C104.166 667.965 103.797 668.017 103.411 668.017C103.218 668.017 103.025 668 102.849 668.017C102.726 668.017 102.568 668.035 102.445 668.07C102.357 668.087 102.287 668.123 102.199 668.158C102.182 668.158 102.182 668.158 102.164 668.158C101.743 668.298 101.602 668.807 101.901 669.123C101.953 669.194 101.971 669.194 101.918 669.141C101.971 669.211 102.024 669.282 102.076 669.334C102.182 669.422 102.305 669.51 102.427 669.58C102.638 669.685 102.866 669.756 103.095 669.843C103.499 669.984 103.92 670.124 104.342 670.195C104.816 670.265 105.395 670.37 105.869 670.247C106.273 670.142 106.817 669.879 107.081 669.545C107.309 669.299 107.379 668.913 107.098 668.649Z" fill="white"/>
<path d="M121.199 668.511C121.024 668.23 120.76 668.054 120.497 667.878C120.233 667.703 119.952 667.527 119.689 667.352C119.426 667.176 119.145 667.018 118.864 666.86C118.53 666.667 118.161 666.544 117.792 666.403C117.459 666.28 117.073 666.456 116.879 666.719C116.669 666.983 116.616 667.404 116.809 667.685C117.02 668.019 117.231 668.335 117.529 668.598C117.828 668.879 118.126 669.16 118.477 669.371C118.758 669.547 119.039 669.74 119.32 669.898C119.601 670.056 119.9 670.196 120.233 670.214C120.514 670.231 120.76 670.196 121.024 670.073C121.304 669.933 121.498 669.582 121.48 669.266C121.445 668.985 121.34 668.739 121.199 668.511Z" fill="white"/>
<path d="M114.597 681.941C114.614 681.941 114.614 681.924 114.614 681.906C114.561 681.959 114.544 681.977 114.597 681.941Z" fill="white"/>
<path d="M114.614 680.818C114.632 680.836 114.632 680.836 114.649 680.854C114.597 680.783 114.544 680.713 114.491 680.643C114.351 680.485 114.158 680.415 113.964 680.344C113.754 680.257 113.613 680.204 113.367 680.186C113.034 680.169 112.665 680.186 112.331 680.239C112.085 680.292 111.857 680.344 111.611 680.379C111.559 680.397 111.488 680.397 111.436 680.415C111.278 680.467 111.137 680.537 111.014 680.66C111.049 680.625 111.085 680.608 111.12 680.573C111.102 680.608 110.979 680.643 110.944 680.66C110.856 680.713 110.804 680.801 110.751 680.871L110.733 680.889C110.452 681.099 110.417 681.415 110.61 681.661C110.716 681.854 110.874 682.03 111.085 682.1C111.155 682.135 111.12 682.118 110.997 682.03C111.085 682.118 111.19 682.188 111.313 682.223C111.401 682.258 111.488 682.276 111.576 682.293C111.822 682.346 112.085 682.399 112.331 682.452C112.665 682.504 112.999 682.522 113.332 682.504C113.561 682.504 113.736 682.451 113.929 682.364C114.105 682.293 114.245 682.241 114.386 682.135C114.491 682.065 114.561 681.977 114.614 681.872C114.895 681.609 114.895 681.117 114.614 680.818Z" fill="white"/>
<path d="M107.327 691.232C107.221 690.969 106.993 690.741 106.695 690.67C106.361 690.6 106.08 690.582 105.764 690.705C105.588 690.776 105.395 690.846 105.22 690.899C105.009 690.969 104.798 691.074 104.587 691.162C104.535 691.18 104.482 691.197 104.447 691.215C104.324 691.267 104.201 691.302 104.078 691.355C103.885 691.443 103.692 691.531 103.499 691.618C103.481 691.636 103.481 691.618 103.464 691.636C103.428 691.654 103.393 691.671 103.358 691.689C103.288 691.724 103.2 691.741 103.13 691.777C102.726 691.917 102.322 692.022 101.936 692.216C101.374 692.514 101.532 693.357 102.111 693.515C102.515 693.638 102.954 693.62 103.376 693.603C103.832 693.585 104.324 693.568 104.763 693.462C105.202 693.375 105.676 693.234 106.08 693.041C106.554 692.813 107.063 692.584 107.274 692.075C107.415 691.794 107.467 691.531 107.327 691.232Z" fill="white"/>
<path d="M127.099 690.038C127.117 689.933 127.099 689.828 127.064 689.722C127.082 689.582 126.976 689.477 126.836 689.494C126.783 689.477 126.731 689.441 126.66 689.441C126.625 689.441 126.572 689.459 126.537 689.459C126.59 689.459 126.59 689.459 126.537 689.459C126.608 689.477 126.678 689.494 126.748 689.512C126.537 689.424 126.309 689.441 126.081 689.494C125.87 689.547 125.677 689.599 125.501 689.722C125.238 689.898 124.975 690.074 124.711 690.232C124.448 690.39 124.184 690.53 123.903 690.671C123.763 690.741 123.622 690.811 123.482 690.916C123.289 691.057 123.06 691.18 122.902 691.338C122.569 691.689 122.446 692.286 122.727 692.725C123.008 693.164 123.499 693.375 124.009 693.252C124.465 693.147 124.904 692.813 125.255 692.532C125.501 692.321 125.747 692.111 125.975 691.882C126.204 691.672 126.414 691.443 126.643 691.215C126.783 691.057 126.906 690.899 126.976 690.706C126.994 690.653 127.011 690.583 127.047 690.53C127.082 690.337 127.099 690.196 127.099 690.038Z" fill="white"/>
<path d="M133.035 677.115C132.982 677.08 132.929 677.027 132.877 676.992C132.877 676.992 132.859 676.992 132.859 676.974C132.613 676.834 132.244 676.799 131.999 676.974C131.928 677.027 131.858 677.062 131.805 677.115C131.718 677.15 131.612 677.203 131.524 677.255C131.419 677.326 131.349 677.413 131.261 677.501C131.173 677.571 131.085 677.659 130.998 677.729C130.752 677.905 130.488 678.081 130.26 678.256L130.506 678.063C129.979 678.467 129.329 678.713 128.908 679.24C128.645 679.556 128.539 679.924 128.697 680.311C128.767 680.469 128.855 680.592 128.996 680.697C129.189 680.838 129.347 680.873 129.593 680.908C129.733 680.925 129.874 680.908 130.014 680.908C130.348 680.89 130.629 680.75 130.927 680.592C131.191 680.451 131.454 680.293 131.7 680.118C132.016 679.889 132.279 679.626 132.525 679.327C132.666 679.152 132.806 678.976 132.947 678.783C132.982 678.73 133.035 678.66 133.07 678.59C133.14 678.449 133.193 678.309 133.193 678.168C133.228 678.098 133.245 678.01 133.28 677.94C133.333 677.677 133.245 677.308 133.035 677.115Z" fill="white"/>
<path d="M145.028 641.888C144.993 641.73 145.01 641.572 144.975 641.414C144.94 641.291 144.888 641.133 144.817 641.028C144.73 640.87 144.501 640.8 144.466 640.642C144.466 640.589 144.378 640.589 144.361 640.624C144.343 640.642 144.326 640.677 144.308 640.694C144.01 640.659 143.729 640.817 143.518 641.028C143.325 641.204 143.132 641.414 142.991 641.625C142.71 642.029 142.499 642.468 142.271 642.889C142.043 643.311 141.815 643.715 141.586 644.136C141.463 644.347 141.358 644.558 141.27 644.768C141.147 645.049 141.059 645.26 141.042 645.576C141.024 645.699 141.042 645.839 141.077 645.962C141.2 646.278 141.235 646.331 141.165 646.138C141.323 646.507 141.586 646.77 142.008 646.805C142.06 646.805 142.131 646.823 142.201 646.84C142.412 646.84 142.605 646.788 142.798 646.682C142.974 646.594 143.132 646.472 143.254 646.331C143.465 646.085 143.676 645.822 143.852 645.541C144.168 645.032 144.396 644.505 144.624 643.96C144.817 643.486 144.958 643.03 145.028 642.503C145.063 642.38 145.081 642.24 145.063 642.117C145.046 642.011 145.046 641.941 145.028 641.888Z" fill="white"/>
<path d="M142.043 646.806C142.025 646.806 142.025 646.806 142.008 646.806C141.832 646.771 141.85 646.771 142.043 646.806Z" fill="white"/>
<path d="M156.073 660.115C155.792 659.905 155.459 659.905 155.16 660.045C155.072 660.098 154.967 660.133 154.862 660.186C154.756 660.238 154.668 660.326 154.581 660.396C154.423 660.519 154.247 660.642 154.071 660.748C153.703 661.011 153.316 661.257 152.912 661.485C152.526 661.696 152.122 661.907 151.718 662.082C151.683 662.1 151.648 662.117 151.613 662.135C151.437 662.205 151.279 662.275 151.121 662.346C150.805 662.504 150.507 662.644 150.331 662.96C150.085 663.417 150.226 663.961 150.665 664.242C151.227 664.593 152.017 664.347 152.596 664.137C153.123 663.943 153.615 663.715 154.089 663.417C154.528 663.118 154.985 662.802 155.371 662.433C155.546 662.258 155.705 662.065 155.863 661.889C155.985 661.731 156.126 661.59 156.196 661.397C156.249 661.257 156.319 661.116 156.372 660.976C156.477 660.677 156.302 660.309 156.073 660.115Z" fill="white"/>
<path d="M136.195 658.939C136.283 658.746 136.108 658.57 135.914 658.658C135.897 658.658 135.897 658.676 135.879 658.676C135.756 658.676 135.633 658.676 135.528 658.711C135.142 658.728 134.738 659.097 134.474 659.325C134.176 659.589 133.948 659.94 133.737 660.291C133.526 660.642 133.368 661.011 133.228 661.397C133.07 661.854 133.087 662.363 133.157 662.82C133.21 663.171 133.596 663.417 133.895 663.469C134.246 663.522 134.615 663.364 134.791 663.048C134.896 662.872 135.019 662.679 135.054 662.469C135.072 662.451 135.072 662.433 135.089 662.398C135.159 662.258 135.212 662.117 135.265 661.977C135.37 661.678 135.458 661.362 135.581 661.064C135.598 661.029 135.598 661.011 135.616 660.976C135.651 660.923 135.669 660.853 135.704 660.8C135.791 660.607 135.879 660.396 135.95 660.186C135.985 660.045 136.037 659.922 136.09 659.782C136.125 659.712 136.195 659.518 136.195 659.536C136.23 659.431 136.213 659.308 136.195 659.202C136.195 659.167 136.213 659.132 136.213 659.097C136.213 659.062 136.213 658.992 136.195 658.939Z" fill="white"/>
<path d="M156.811 682.383C156.881 682.4 156.969 682.4 157.039 682.418C157.074 682.418 157.092 682.418 157.127 682.435C157.022 682.4 156.916 682.4 156.811 682.383Z" fill="white"/>
<path d="M157.794 682.523C157.777 682.523 157.548 682.505 157.548 682.487C157.689 682.505 157.706 682.505 157.636 682.505C157.601 682.505 157.566 682.487 157.513 682.487C157.355 682.47 157.197 682.435 157.039 682.417C156.846 682.382 156.67 682.347 156.477 682.347C156.319 682.347 156.179 682.347 156.021 682.347C155.74 682.347 155.441 682.329 155.16 682.312C154.493 682.259 153.492 682.294 153.106 682.944C153.193 682.856 153.264 682.786 153.351 682.698C153.299 682.733 153.246 682.751 153.193 682.786C152.965 682.909 152.86 683.26 153.018 683.488C153.035 683.523 153.071 683.559 153.088 683.594C153.123 683.699 153.176 683.804 153.264 683.927C153.299 683.98 153.351 684.033 153.404 684.085C153.615 684.296 153.931 684.454 154.212 684.56C154.651 684.718 155.107 684.77 155.582 684.805C156.038 684.84 156.53 684.876 156.986 684.788C157.355 684.718 157.724 684.577 158.075 684.454C158.532 684.279 158.848 683.892 158.778 683.383C158.69 682.856 158.286 682.575 157.794 682.523Z" fill="white"/>
<path d="M159.058 694.112C159.076 694.129 159.094 694.147 159.111 694.164C159.094 694.094 159.058 694.059 159.023 694.006C159.006 693.971 159.006 693.954 158.971 693.936C158.883 693.831 158.76 693.743 158.637 693.708C158.233 693.602 157.812 693.532 157.408 693.444C157.127 693.392 156.863 693.321 156.583 693.286C156.53 693.286 156.512 693.269 156.512 693.269C156.495 693.269 156.495 693.269 156.46 693.269C156.354 693.251 156.249 693.234 156.161 693.216C155.687 693.146 155.195 693.093 154.721 693.058C154.51 693.04 154.3 693.023 154.107 693.04C153.843 693.058 153.58 693.181 153.299 693.216C153.018 693.251 152.807 693.567 152.79 693.813C152.754 694.112 152.895 694.357 153.141 694.533C153.193 694.568 153.246 694.603 153.299 694.638C153.387 694.691 153.404 694.709 153.369 694.691C153.316 694.674 153.334 694.691 153.404 694.744C153.474 694.832 153.562 694.884 153.65 694.919C153.878 695.06 154.177 695.113 154.44 695.183C154.914 695.306 155.441 695.376 155.915 695.394C156.828 695.429 157.794 695.288 158.655 694.99C158.936 694.884 159.146 694.656 159.146 694.34C159.146 694.27 159.094 694.199 159.058 694.112Z" fill="white"/>
<path d="M144.694 686.228C144.659 686.245 144.624 686.245 144.589 686.263C144.449 686.245 144.308 686.263 144.168 686.316C144.045 686.368 143.922 686.403 143.799 686.456C143.483 686.579 143.184 686.702 142.903 686.878C142.798 686.948 142.675 687 142.57 687.071C142.394 687.194 142.218 687.334 142.043 687.475C141.762 687.685 141.481 687.878 141.27 688.177C141.2 688.282 141.147 688.388 141.077 688.475C140.901 688.774 140.814 689.072 140.884 689.424C140.989 689.845 141.428 690.144 141.85 690.144C142.043 690.144 142.236 690.073 142.429 690.003C142.482 689.986 142.535 689.968 142.605 689.951C142.798 689.88 142.938 689.81 143.096 689.687C143.237 689.582 143.377 689.459 143.518 689.353C143.729 689.195 143.939 689.037 144.132 688.844C144.378 688.581 144.624 688.317 144.835 688.001C144.905 687.878 144.993 687.773 145.063 687.65C145.169 687.51 145.221 687.352 145.256 687.176C145.274 687.141 145.291 687.106 145.327 687.071C145.59 686.649 145.169 686.07 144.694 686.228Z" fill="white"/>
<path d="M145.924 673.215C145.906 673.145 145.906 673.127 145.924 673.162C145.924 673.197 145.941 673.092 145.941 673.092C145.959 672.864 145.695 672.706 145.502 672.758C145.485 672.758 145.449 672.776 145.414 672.776C145.449 672.776 145.397 672.758 145.397 672.758C145.291 672.758 145.204 672.793 145.116 672.828C145.01 672.864 144.905 672.899 144.8 672.951C144.431 673.092 144.08 673.32 143.781 673.566C143.571 673.742 143.36 673.917 143.149 674.075C142.868 674.303 142.657 674.62 142.447 674.918C142.289 675.146 142.236 675.568 142.324 675.849C142.412 676.095 142.535 676.305 142.745 676.463C143.219 676.832 143.869 676.779 144.326 676.376C144.589 676.13 144.835 675.866 145.028 675.55C145.169 675.322 145.327 675.076 145.449 674.848C145.52 674.743 145.555 674.602 145.608 674.497C145.678 674.321 145.783 674.145 145.818 673.952C145.853 673.829 145.871 673.724 145.888 673.601C145.906 673.513 145.941 673.408 145.941 673.303C145.924 673.267 145.924 673.232 145.924 673.215Z" fill="white"/>
<path d="M100.601 713.34C100.917 713.112 101.233 712.901 101.585 712.725C103.27 711.847 104.886 711.883 106.554 712.796C108.398 713.814 110.013 715.166 112.261 714.868C116.774 714.253 118.758 708.493 123.833 710.144C127.661 711.408 131.331 715.026 135.546 712.848C138.057 711.549 139.497 709.354 142.622 710.285C144.993 710.987 146.995 712.585 149.313 713.41C152.263 714.464 154.967 713.551 157.847 712.761C157.935 712.743 158.04 712.708 158.128 712.69L158.251 710.513C157.513 710.671 156.776 710.864 156.038 711.075C154.265 711.584 152.421 712.111 150.577 711.689C149.102 711.356 147.732 710.618 146.398 709.933C144.343 708.88 142.131 707.756 139.742 708.23C137.056 708.774 135.405 711.742 132.578 711.689C130.049 711.637 127.749 709.81 125.501 708.862C123.499 708.002 121.41 707.615 119.355 708.476C117.073 709.424 115.562 711.514 113.42 712.655C110.136 714.394 107.854 710.759 104.71 710.407C103.358 710.267 101.83 710.671 100.478 711.426L100.601 713.34Z" fill="white"/>
<path d="M157.9 716.799C156.583 716.799 155.301 716.975 154.3 717.238C152.719 717.659 151.121 718.221 149.471 718.204C147.925 718.186 146.573 717.466 145.221 716.799C143.184 715.78 141.042 714.867 138.777 715.71C136.301 716.641 134.738 719.573 131.788 718.906C129.382 718.362 127.45 716.536 124.975 716.097C120.198 715.236 117.529 719.854 113.332 720.943C110.347 721.716 107.783 718.906 104.745 718.994C103.428 719.029 102.111 719.398 101.005 720.065L101.11 721.821C102.761 720.838 104.622 720.346 106.589 720.961C108.767 721.646 110.435 723.156 112.858 722.91C116.809 722.524 119.32 718.52 123.183 718.081C127.398 717.607 130.506 722.594 134.913 720.75C137.021 719.872 138.584 717.343 141.059 717.589C143.307 717.817 145.204 719.538 147.364 720.153C150.261 720.996 153.071 719.925 155.898 719.31C156.495 719.187 157.127 719.099 157.741 719.099L157.9 716.799Z" fill="white"/>
<path d="M593.285 591.199C593.525 591.199 593.72 591.279 593.87 591.439C594.02 591.599 594.095 591.799 594.095 592.039V600.779C594.095 601.039 594.005 601.259 593.825 601.439C593.655 601.608 593.44 601.693 593.18 601.693C593.05 601.693 592.915 601.673 592.776 601.633C592.646 601.583 592.546 601.518 592.476 601.439L586.584 593.958L586.974 593.718V600.854C586.974 601.094 586.894 601.294 586.734 601.453C586.584 601.613 586.384 601.693 586.134 601.693C585.894 601.693 585.7 601.613 585.55 601.453C585.4 601.294 585.325 601.094 585.325 600.854V592.114C585.325 591.854 585.41 591.639 585.58 591.469C585.76 591.289 585.979 591.199 586.239 591.199C586.379 591.199 586.524 591.229 586.674 591.289C586.824 591.339 586.934 591.419 587.004 591.529L592.716 598.815L592.461 598.995V592.039C592.461 591.799 592.536 591.599 592.686 591.439C592.836 591.279 593.035 591.199 593.285 591.199ZM606.003 596.446C606.003 597.196 605.879 597.895 605.629 598.545C605.379 599.195 605.024 599.769 604.564 600.269C604.114 600.759 603.575 601.144 602.945 601.424C602.325 601.703 601.646 601.843 600.906 601.843C600.167 601.843 599.487 601.703 598.867 601.424C598.248 601.144 597.708 600.759 597.248 600.269C596.799 599.769 596.449 599.195 596.199 598.545C595.949 597.895 595.824 597.196 595.824 596.446C595.824 595.697 595.949 594.997 596.199 594.347C596.449 593.698 596.799 593.128 597.248 592.638C597.708 592.139 598.248 591.749 598.867 591.469C599.487 591.189 600.167 591.049 600.906 591.049C601.646 591.049 602.325 591.189 602.945 591.469C603.575 591.749 604.114 592.139 604.564 592.638C605.024 593.128 605.379 593.698 605.629 594.347C605.879 594.997 606.003 595.697 606.003 596.446ZM604.055 596.446C604.055 595.777 603.92 595.172 603.65 594.632C603.38 594.083 603.01 593.648 602.54 593.328C602.071 593.008 601.526 592.848 600.906 592.848C600.287 592.848 599.742 593.008 599.272 593.328C598.802 593.648 598.433 594.078 598.163 594.617C597.903 595.157 597.773 595.767 597.773 596.446C597.773 597.116 597.903 597.726 598.163 598.275C598.433 598.815 598.802 599.245 599.272 599.565C599.742 599.884 600.287 600.044 600.906 600.044C601.526 600.044 602.071 599.884 602.54 599.565C603.01 599.245 603.38 598.815 603.65 598.275C603.92 597.726 604.055 597.116 604.055 596.446ZM616.424 591.199C617.143 591.199 617.783 591.334 618.342 591.604C618.902 591.874 619.372 592.254 619.752 592.743C620.141 593.223 620.431 593.783 620.621 594.422C620.821 595.052 620.921 595.727 620.921 596.446C620.921 597.416 620.746 598.3 620.396 599.1C620.047 599.889 619.537 600.519 618.867 600.989C618.208 601.458 617.393 601.693 616.424 601.693H612.841C612.581 601.693 612.361 601.608 612.181 601.439C612.011 601.259 611.926 601.039 611.926 600.779V592.114C611.926 591.854 612.011 591.639 612.181 591.469C612.361 591.289 612.581 591.199 612.841 591.199H616.424ZM616.274 599.969C616.903 599.969 617.418 599.809 617.818 599.49C618.218 599.16 618.507 598.73 618.687 598.2C618.877 597.661 618.972 597.076 618.972 596.446C618.972 595.977 618.917 595.532 618.807 595.112C618.707 594.682 618.547 594.307 618.327 593.988C618.108 593.658 617.828 593.398 617.488 593.208C617.148 593.018 616.743 592.923 616.274 592.923H613.65L613.8 592.788V600.134L613.71 599.969H616.274ZM626.422 593.553L623.184 601.169C623.114 601.359 623.004 601.508 622.854 601.618C622.714 601.718 622.56 601.768 622.39 601.768C622.12 601.768 621.92 601.693 621.79 601.543C621.66 601.394 621.595 601.209 621.595 600.989C621.595 600.899 621.61 600.804 621.64 600.704L625.373 591.739C625.453 591.539 625.573 591.384 625.733 591.274C625.903 591.164 626.083 591.119 626.272 591.139C626.452 591.139 626.617 591.194 626.767 591.304C626.927 591.404 627.042 591.549 627.112 591.739L630.8 600.524C630.85 600.654 630.875 600.774 630.875 600.884C630.875 601.154 630.785 601.369 630.605 601.528C630.435 601.688 630.245 601.768 630.035 601.768C629.855 601.768 629.691 601.713 629.541 601.603C629.401 601.493 629.291 601.344 629.211 601.154L625.988 593.643L626.422 593.553ZM623.649 599.34L624.473 597.616H628.521L628.806 599.34H623.649ZM634.951 601.693C634.671 601.693 634.441 601.608 634.261 601.439C634.081 601.259 633.991 601.039 633.991 600.779V592.084H635.94V600.779C635.94 601.039 635.845 601.259 635.655 601.439C635.475 601.608 635.24 601.693 634.951 601.693ZM631.637 592.923C631.378 592.923 631.158 592.843 630.978 592.683C630.808 592.523 630.723 592.314 630.723 592.054C630.723 591.794 630.808 591.589 630.978 591.439C631.158 591.279 631.378 591.199 631.637 591.199H638.294C638.554 591.199 638.768 591.279 638.938 591.439C639.118 591.599 639.208 591.809 639.208 592.069C639.208 592.329 639.118 592.538 638.938 592.698C638.768 592.848 638.554 592.923 638.294 592.923H631.637ZM643.888 593.553L640.65 601.169C640.58 601.359 640.47 601.508 640.32 601.618C640.18 601.718 640.025 601.768 639.855 601.768C639.586 601.768 639.386 601.693 639.256 601.543C639.126 601.394 639.061 601.209 639.061 600.989C639.061 600.899 639.076 600.804 639.106 600.704L642.839 591.739C642.919 591.539 643.039 591.384 643.199 591.274C643.368 591.164 643.548 591.119 643.738 591.139C643.918 591.139 644.083 591.194 644.233 591.304C644.393 591.404 644.508 591.549 644.578 591.739L648.266 600.524C648.316 600.654 648.341 600.774 648.341 600.884C648.341 601.154 648.251 601.369 648.071 601.528C647.901 601.688 647.711 601.768 647.501 601.768C647.321 601.768 647.156 601.713 647.006 601.603C646.866 601.493 646.757 601.344 646.677 601.154L643.453 593.643L643.888 593.553ZM641.115 599.34L641.939 597.616H645.987L646.272 599.34H641.115Z" fill="#2E344B"/>
</svg>
